<?xml version="1.0" encoding="UTF-8"?>
<svg fill="currentColor" enable-background="new 0 0 670.2 148.2" version="1.1" viewBox="0 0 670.2 148.2" xml:space="preserve" xmlns="http://www.w3.org/2000/svg">
	<path d="M21.2,19.5H36l29.9,70.2l29.3-70.2H110v107.8H94.3V60.1h-0.4l-21.8,51.7H59L37.3,60.1H37v67.2H21.2V19.5z"/>
	<path d="M128,19.5h66.5v15.4h-50.8v30.8h43.3v14.5h-43.3v31.7h50.7v15.4H128V19.5z"/>
	<path d="M204.4,19.5h15.8v107.8h-15.8V19.5z"/>
	<path d="M235.8,19.5h14.9l47.1,76.6h0.3V19.5h15.8v107.8h-14.9l-47.1-76.6h-0.3v76.6h-15.8V19.5z"/>
	<path d="m401.8 97.2c-2.3 10-6.6 17.7-13.1 23-6.7 5.3-15 8.2-23.5 8-8.2-0.2-15-2.3-20.5-6.2-5.1-3.3-9.3-7.8-12.1-13.1-0.8-1.6-1.5-3.2-2.1-4.7-0.7-1.9-1.1-3.8-1.4-5.8-0.7-4.3-1.1-12.7-1.1-25 0-12.5 0.4-20.9 1.1-25.1 0.5-3.6 1.7-7.1 3.5-10.3 2.9-5.4 7-9.9 12.1-13.3 5.5-3.9 12.3-6 20.5-6.1 10 0.1 18.2 3.2 24.6 9.2 6.3 6.1 10.5 14 12 22.6h-16.8c-1.3-4.3-3.7-8.1-7-11.1-3.6-3-8.2-4.6-12.9-4.5-3.3 0-6.6 0.8-9.6 2.3-2.6 1.4-4.8 3.3-6.6 5.6-2.2 2.6-3.6 5.7-4.1 9-0.8 3.9-1.1 11.1-1.1 21.7s0.4 17.8 1.1 21.6c0.5 3.4 1.9 6.5 4.1 9.1 1.7 2.3 4 4.1 6.6 5.4 2.9 1.7 6.2 2.5 9.6 2.4 8.9 0 15.5-4.9 19.9-14.7h16.8z"/>
	<path d="M408,19.5h15.8V75h0.3l42.8-55.5h18.7L452.2,62l36.8,65.2h-18.7L442,74.6l-18.3,19.9v32.8H408V19.5z"/>
	<path d="m495.5 19.5h66.5v15.4h-50.8v30.8h43.3v14.5h-43.3v31.7h50.8v15.4h-66.5v-107.8z"/>
	<path d="M571.9,19.5h14.9l47.1,76.6h0.3V19.5h15.8v107.8H635L588,50.7h-0.3v76.6h-15.8V19.5z"/>
	<path d="M670.2,148.2H0V0h670.2V148.2z M4,144.2h662.2V4H4V144.2z"/>
</svg>
